<svg version="1" xmlns="http://www.w3.org/2000/svg" width="933.333" height="933.333" viewBox="0 0 700.000000 700.000000"><path d="M322.2 14.5C257.4 24.4 216.9 65.4 191.7 147c-8.8 28.3-20.1 79.3-33.7 152.1l-2.2 11.7-18.1.3c-17.5.4-18.4.5-23.9 3.2-3.3 1.6-7.6 4.9-10.2 7.8-7.2 8.1-7.6 10.1-7.6 42.9v28.6L86.2 410c-5.4 9.1-19.1 31.4-30.4 49.6-24.8 39.8-31.4 51.1-38.9 66.9-10.5 22.2-15.6 41.4-16.6 63-1.4 31.3 10 52.1 35.9 65.1 12.2 6.2 29.8 10.1 53.9 11.9 7.4.6 7.6.7 9.2 4 2.7 5.6 7.9 10.7 14.2 13.7l6 2.8h461l6-2.8c6.3-3 11.5-8.1 14.2-13.7 1.6-3.3 1.8-3.4 9.2-4 24.1-1.8 41.7-5.7 53.9-11.9 25.9-13 37.3-33.8 35.9-65.1-1.7-36.1-13.3-63.5-55-129.1-7.6-12.1-10.1-14.4-15.2-14.4-6.2 0-11.4 6.2-10 11.8.3 1.5 6.6 12.4 14 24.2 14 22.6 22 36.2 26.2 44.4l2.5 5-2.3-1.6c-12.2-7.9-30.3-16.9-44.9-22.1l-9.5-3.5-.8-83.3c-.6-70-1-84.2-2.2-88.6-2-6.8-8.8-14.3-16.3-18-5.5-2.7-6.4-2.8-23.9-3.2l-18.1-.3-2.2-11.7c-7.7-40.8-20.6-103.6-24.9-120.7-13.8-54.7-29.3-89.7-51.4-116.3-6.7-8-10.8-10.1-15.8-8.1-4.1 1.7-6.9 5.6-6.9 9.5 0 3.2.7 4.3 10.3 16.4 19.7 24.9 35.4 64.8 48.1 122.2 2.4 11.2 4.8 22 5.1 23.9.6 2.9-.7 1.5-6.7-7.6-20.7-30.9-39.5-48.7-65.6-62.1-59-30.3-139.6-24.4-190.4 13.7-16.5 12.4-30.8 28.5-45.8 51.6-6 9.2-6 10.9.7-19.6 10.5-47.7 23.3-83.9 38.4-108.3 16.8-27 37.8-44.2 65-53.1 15.3-5 28.3-6.8 48.9-6.7 26.3 0 42 3.2 62.2 12.7 9.2 4.3 12.4 5.4 14.7 4.9 4-.9 7.2-4.6 7.8-9.2.7-5.7-2.8-9.4-14.1-14.7-11.3-5.4-22.2-9-35.2-11.7-13.2-2.7-50.2-3.5-64.2-1.4zm52.1 145c22.2 2.9 44 10.3 59.2 20l7 4.4-11.5.1c-27.4.1-49.5 6.7-62.5 18.9l-4 3.7-12.7-.1h-12.7l-3.8-3.7C321 190.9 298.4 184.1 271 184l-11.5-.1 7-4.4c14.8-9.4 37-17.1 58-19.9 13.6-1.9 36-1.9 49.8-.1zm-76.3 48c9.3 2.5 18.4 7 21.6 10.7 2.5 3.1 2.6 3.6 2 11.3-1.5 20.1-9.6 32.1-25.3 37.7-8.2 2.9-27.4 3.7-36.3 1.4-9.2-2.4-14.8-5.3-20.2-10.7-8.3-8.3-12.8-20.4-12.8-34.7 0-6.9.2-7.6 2.9-10.1 3-2.8 10.6-5.5 19.6-7.1 8.5-1.5 41-.5 48.5 1.5zm154-1.1c9 1.6 17.5 5.1 19.5 8 1.8 2.5 2 13.2.4 20.8-1.8 8.5-6.3 17.3-11.6 22.6-5.5 5.5-11 8.4-20.3 10.8-8.9 2.3-28.1 1.5-36.3-1.4-15.8-5.7-23.8-17.6-25.4-37.9l-.6-8.3 4-3.9c4.8-4.5 14.5-8.6 25.1-10.5 10-1.8 35.5-1.9 45.2-.2zm-94.6 22.2c.3.9.6 3.1.6 5 0 6.1 3.1 17.6 6.8 25.4 6.9 14.6 21.2 25.5 38.9 29.7 11.1 2.6 33 2.4 43.1-.4l7.4-2-.5 2.6c-.3 1.4-1.3 7-2.3 12.3l-1.7 9.7-26.4.3-26.5.3-2.9 3.3c-4.2 4.6-4 9.3.5 13.8l3.4 3.4H577l3.2 2.9 3.3 2.9.3 138.4c.2 98.4 0 139.4-.8 142.1-.7 2.5-2.2 4.5-4.3 5.7-3.1 1.9-5.9 2-107 2-112.8 0-107.9-.2-110.5 5.5-2.2 4.8-1.1 9.3 3.2 12.7 2 1.6 9.3 1.8 110.9 1.8H584v5.5c0 3.1-.6 7.1-1.4 9-3 7.1 17 6.5-232.8 6.5-221.5 0-225.4 0-228.5-2-3.8-2.3-5.6-7.3-5.1-14l.3-4.5 108.7-.5 108.8-.5 2.7-2.8c4.1-4 3.9-9.9-.5-13.8L333 626H228.7c-101.5 0-104.3-.1-107.4-2-2.1-1.2-3.6-3.2-4.3-5.7-.8-2.7-1-43.7-.8-142.1l.3-138.4 3.3-2.9 3.2-2.9h111.6c105.8 0 111.5.1 111 1.7-24.9 76.7-43.8 136.5-43.9 138.9-.1 3.9 2.6 8.2 5.9 9.4 1.4.6 14.7 1 29.5 1s26.9.4 26.9.8-7.6 24.6-17 53.8c-9.7 30.2-17 54.5-17 56.7 0 5 4.3 9.7 9 9.7 4.1 0 8.4-2.3 9.7-5.2.5-1.3 9.9-30 20.8-63.8 21.6-67.3 21.3-65.9 15.2-70.4-2.7-2-4.2-2.1-30.9-2.4-21.1-.2-27.9-.6-27.5-1.5 1.3-3.5 42.2-131 43.3-135.1 1.1-4.1 1.1-5.4-.1-8.3-2.7-6.3-2.2-6.3-63.8-6.3h-55.4l-1.7-9.8c-1-5.3-2-10.9-2.3-12.3l-.5-2.6 7.4 2c10.1 2.8 32 3 43.1.4 17.7-4.2 32-15.1 38.9-29.7 3.7-7.8 6.8-19.3 6.8-25.4 0-6.2.5-6.6 8-6.6 5.3 0 6.9.4 7.4 1.6zM94.3 504.1c-.5.3-4.9 2.1-10 3.9-5.1 1.8-12.9 5.1-17.5 7.4-7.4 3.7-8.4 4.5-9.5 7.9-2.5 7.4 3 14.4 10.4 13.4 2.1-.2 8.7-2.5 14.7-5.1 5.9-2.5 11.2-4.6 11.7-4.6.4 0 .9 21.5 1.1 47.7l.3 47.8 2.4 5.2c2.2 5 2.2 5.4.7 7.8-.9 1.3-2 4.2-2.4 6.2l-.8 3.8-8-.3c-10-.3-24-2.6-32.4-5.3-23.9-7.8-34-21.2-34-45.3 0-20.4 4.4-37.3 15.9-61.1 8.1-16.6 10.1-20.1 36.9-63.2l20.7-33.2.3 33.1c.1 18.3-.1 33.5-.5 33.9zM616 530.8c25.8 10 48.9 27 56.7 41.7 5.1 9.7 6.6 16.5 6 26.9-.6 12.2-3.3 19-10.4 26.6-6.7 7.3-15.7 12-29.3 15.4-10 2.5-31.1 5.2-33.6 4.2-.7-.3-1.4-1.6-1.4-2.8 0-1.3-.9-4.1-2.1-6.2-2-3.7-2-4.1-.5-7.5 3.1-7 3.6-14.6 3.6-58.3v-43.9l2.3.6c1.2.4 5.1 1.9 8.7 3.3z"/></svg>